<svg width="403" height="118" viewBox="0 0 403 118" fill="none" xmlns="http://www.w3.org/2000/svg">
<path d="M369 20H403V31.2857H381.467V52.1643H398.58V63.45H381.467V87.7143H403V99H369V20Z" fill="white"/>
<path d="M324 20H342.271C348.623 20 353.257 21.5048 356.171 24.5143C359.086 27.4486 360.543 32.0005 360.543 38.17V43.0229C360.543 51.2238 357.853 56.4152 352.472 58.5971V58.8229C355.461 59.7257 357.554 61.569 358.749 64.3529C360.02 67.1367 360.655 70.861 360.655 75.5257V89.4071C360.655 91.6643 360.73 93.5076 360.879 94.9371C361.029 96.2914 361.402 97.6457 362 99H349.445C348.997 97.721 348.698 96.5171 348.549 95.3886C348.399 94.26 348.324 92.2286 348.324 89.2943V74.8486C348.324 71.2371 347.727 68.7167 346.531 67.2871C345.41 65.8576 343.43 65.1429 340.59 65.1429H336.33V99H324V20ZM340.814 53.8571C343.28 53.8571 345.111 53.2176 346.307 51.9386C347.577 50.6595 348.212 48.5152 348.212 45.5057V39.4114C348.212 36.5524 347.689 34.4833 346.643 33.2043C345.672 31.9252 344.102 31.2857 341.935 31.2857H336.33V53.8571H340.814Z" fill="white"/>
<path d="M296.5 100C290.518 100 285.939 98.275 282.763 94.825C279.588 91.375 278 86.5 278 80.2V38.8C278 32.5 279.588 27.625 282.763 24.175C285.939 20.725 290.518 19 296.5 19C302.482 19 307.061 20.725 310.237 24.175C313.412 27.625 315 32.5 315 38.8V80.2C315 86.5 313.412 91.375 310.237 94.825C307.061 98.275 302.482 100 296.5 100ZM296.5 88.75C300.71 88.75 302.814 86.1625 302.814 80.9875V38.0125C302.814 32.8375 300.71 30.25 296.5 30.25C292.29 30.25 290.186 32.8375 290.186 38.0125V80.9875C290.186 86.1625 292.29 88.75 296.5 88.75Z" fill="white"/>
<path d="M240 20H252.474V87.7143H273V99H240V20Z" fill="white"/>
<path d="M197 20H215.387C221.591 20 226.244 21.6552 229.347 24.9657C232.449 28.2762 234 33.129 234 39.5243V47.3114C234 53.7067 232.449 58.5595 229.347 61.87C226.244 65.1805 221.591 66.8357 215.387 66.8357H209.485V99H197V20ZM215.387 55.55C217.429 55.55 218.943 54.9857 219.926 53.8571C220.986 52.7286 221.515 50.81 221.515 48.1014V38.7343C221.515 36.0257 220.986 34.1071 219.926 32.9786C218.943 31.85 217.429 31.2857 215.387 31.2857H209.485V55.55H215.387Z" fill="white"/>
<path d="M143.348 57.8564L123.02 0.400391H142.508L154.94 38.3684H155.276L168.044 0.400391H185.516L165.188 57.8564L186.524 118H167.036L153.596 77.0084H153.26L139.484 118H122.012L143.348 57.8564Z" fill="#6EE7B7"/>
<path d="M65.6926 0.400391H116.093V17.2004H84.1726V48.2804H109.541V65.0804H84.1726V101.2H116.093V118H65.6926V0.400391Z" fill="#6EE7B7"/>
<path d="M0.887939 0.400391H28.1039C37.2879 0.400391 44.1759 2.86439 48.7679 7.79239C53.3599 12.7204 55.6559 19.9444 55.6559 29.4644V41.0564C55.6559 50.5764 53.3599 57.8004 48.7679 62.7284C44.1759 67.6564 37.2879 70.1204 28.1039 70.1204H19.3679V118H0.887939V0.400391ZM28.1039 53.3204C31.1279 53.3204 33.3679 52.4804 34.8239 50.8004C36.3919 49.1204 37.1759 46.2644 37.1759 42.2324V28.2884C37.1759 24.2564 36.3919 21.4004 34.8239 19.7204C33.3679 18.0404 31.1279 17.2004 28.1039 17.2004H19.3679V53.3204H28.1039Z" fill="#6EE7B7"/>
</svg>
